<svg width="367" height="211" viewBox="0 0 367 211" fill="none" xmlns="http://www.w3.org/2000/svg">
<path fill-rule="evenodd" clip-rule="evenodd" d="M117.174 39.0452C118.442 39.7822 119.675 40.5486 120.871 41.3428C131.721 19.7268 153.374 2.22574 179.432 0.873712C210.326 -0.729247 238.163 20.8516 249.617 46.7988C279.363 29.4112 320.962 25.5233 345.959 44.8127C376.437 68.3421 370.69 117.408 342.428 145.259C322.751 164.65 293.688 172.239 267.561 167.122C266.366 175.386 262.607 182.997 255.841 188.652C239.797 202.061 211.897 200.276 191.749 189.211C166.327 205.373 124.162 213.74 108.784 209.21C95.2516 205.216 90.4909 176.507 94.3306 150.605C75.8288 154.456 55.6109 151.841 38.5378 141.912C5.95328 122.98 -11.5444 79.5422 10.1786 51.1391C31.8894 22.7254 84.6017 20.1028 117.174 39.0452Z" fill="url(#paint0_linear_7_1269)" style=""/>
<defs>
<linearGradient id="paint0_linear_7_1269" x1="183.46" y1="0.789795" x2="183.46" y2="210.433" gradientUnits="userSpaceOnUse">
<stop stop-color="#F1F5F9" style="stop-color:#F1F5F9;stop-color:color(display-p3 0.9451 0.9608 0.9765);stop-opacity:1;"/>
<stop offset="1" stop-color="white" style="stop-color:white;stop-opacity:1;"/>
</linearGradient>
</defs>
</svg>
