<svg width="17" height="20" viewBox="0 0 17 20" fill="none" xmlns="http://www.w3.org/2000/svg">
<path d="M14.2627 7.45397C14.1699 7.52598 12.5313 8.44927 12.5313 10.5023C12.5313 12.8769 14.6164 13.717 14.6788 13.7378C14.6692 13.789 14.3475 14.8883 13.5794 16.0084C12.8946 16.9941 12.1793 17.9782 11.0912 17.9782C10.0031 17.9782 9.72306 17.3462 8.46694 17.3462C7.24281 17.3462 6.80757 17.999 5.81227 17.999C4.81697 17.999 4.1225 17.0869 3.32402 15.9668C2.39913 14.6515 1.65186 12.6081 1.65186 10.6687C1.65186 7.55798 3.67446 5.90821 5.66506 5.90821C6.72276 5.90821 7.60445 6.60268 8.26852 6.60268C8.90058 6.60268 9.88628 5.86661 11.0896 5.86661C11.5456 5.86661 13.1842 5.90821 14.2627 7.45397ZM10.5183 4.54968C11.016 3.95922 11.368 3.13994 11.368 2.32066C11.368 2.20704 11.3584 2.09183 11.3376 1.99902C10.5279 2.02943 9.56465 2.53828 8.98379 3.21194C8.52774 3.7304 8.1021 4.54968 8.1021 5.38016C8.1021 5.50497 8.1229 5.62979 8.1325 5.66979C8.18371 5.67939 8.26692 5.69059 8.35013 5.69059C9.0766 5.69059 9.99029 5.20414 10.5183 4.54968Z" fill="white" style="fill:white;fill-opacity:1;"/>
</svg>
