<svg width="389" height="191" viewBox="0 0 389 191" fill="none" xmlns="http://www.w3.org/2000/svg">
<path fill-rule="evenodd" clip-rule="evenodd" d="M96.7424 30.6864C76.4455 18.9602 51.0367 15.1896 30.8651 25.5671C-0.767043 41.8336 -7.55915 86.688 9.93775 116.096V116.083C22.2171 136.721 45.4892 148.118 69.2057 147.461C69.4555 168.137 74.8699 187.088 85.078 189.987C101.748 194.728 151.325 181.357 170.821 159.565C188.446 166.482 209.518 165.91 222.177 154.4C239.153 157.55 256.155 154.22 270.283 146.093C271.579 147.15 272.929 148.167 274.333 149.141C304.45 170.031 347.944 163.178 371.489 133.835C395.021 104.504 395.971 55.9608 365.854 35.0705C344.484 20.2474 313.216 23.3327 288.444 36.8586C280.422 26.6194 269.689 18.9169 256.754 15.8308C237.805 11.31 217.866 17.585 201.723 29.6428C188.259 11.3182 166.682 -1.6566 143.741 0.245216C123.922 1.88815 107.219 14.2876 96.7424 30.6864Z" fill="url(#paint0_linear_7_1260)" style=""/>
<defs>
<linearGradient id="paint0_linear_7_1260" x1="194.669" y1="0.0603027" x2="194.669" y2="190.941" gradientUnits="userSpaceOnUse">
<stop stop-color="#F1F5F9" style="stop-color:#F1F5F9;stop-color:color(display-p3 0.9451 0.9608 0.9765);stop-opacity:1;"/>
<stop offset="1" stop-color="white" style="stop-color:white;stop-opacity:1;"/>
</linearGradient>
</defs>
</svg>
