<svg width="97" height="98" viewBox="0 0 97 98" fill="none" xmlns="http://www.w3.org/2000/svg">
<path fill-rule="evenodd" clip-rule="evenodd" d="M36.7543 37.712C30.9193 38.3037 26.0998 41.3311 23.9163 45.887L23.917 45.8849C20.7539 52.4842 23.8801 60.1725 28.6872 64.7306C25.6631 69.5746 25.2461 76.7215 29.5467 80.9499C31.9215 83.2833 35.4537 84.3396 39.2222 83.8985C41.1369 88.8412 44.8327 92.559 49.1517 93.9108C49.7114 94.0859 50.2831 94.2226 50.8617 94.3146C54.3713 94.8807 58.0295 93.9454 61.2992 91.6737C65.4393 95.1036 71.7014 97.6804 74.9622 97.1531C76.143 96.9622 77.1941 96.2193 78.0824 94.9471C80.1295 92.0183 81.2638 86.1912 80.8604 81.358C87.8107 80.5524 95.0036 75.8617 96.1897 68.5052C97.041 63.2227 94.368 57.5407 89.4244 53.756C92.3304 50.7654 94.3024 46.3684 92.9977 41.9121C91.1604 35.6357 83.7097 32.6001 77.6328 33.6649C76.614 29.6217 74.0467 26.4495 70.6341 25.1539C66.5122 23.5917 61.4749 24.9467 57.7968 28.4486C54.0954 24.9284 48.4823 22.7729 43.6103 24.9559C39.2355 26.9146 36.5726 31.9983 36.7543 37.712Z" fill="#3474FF"/>
<path d="M44.9129 45.926C47.0657 46.4738 48.3675 48.6656 47.8201 50.8167C47.5387 51.9227 46.4132 52.5914 45.3069 52.3099L41.5141 51.3448C40.4079 51.0633 39.7389 49.938 40.0203 48.8319C40.568 46.6795 42.76 45.3782 44.9116 45.9257L44.9129 45.926Z" fill="white"/>
<path d="M57.0479 49.0141C59.2007 49.5619 60.5038 51.7539 59.9564 53.905C59.675 55.0111 58.5495 55.6798 57.4432 55.3983L53.6504 54.4332C52.5441 54.1517 51.8752 53.0263 52.1566 51.9203C52.7043 49.7679 54.8963 48.4666 57.0479 49.0141Z" fill="white"/>
<path d="M19.5669 31.2789C20.2344 27.4762 17.6936 23.8546 13.891 23.1871C10.0883 22.5196 6.46671 25.0605 5.7992 28.8631C5.13169 32.6658 8.71336 40.1902 11.2013 39.9079C13.4899 39.6492 18.8982 35.0797 19.5669 31.2789Z" fill="#0C1937"/>
<circle cx="16.3982" cy="16.3982" r="16.3982" fill="#FFBC28"/>
<path d="M10.5878 31.2468L11.1756 28.0729C11.2111 27.8814 11.1357 27.6861 10.9807 27.5681L9.23269 26.2362C8.91661 25.9954 8.97951 25.5028 9.34596 25.3491L11.7115 24.3571C12.0755 24.2044 12.1407 23.7165 11.8296 23.4736L8.00041 20.485C7.67343 20.2298 7.76548 19.7127 8.16043 19.5861L13.1907 17.9726C13.5761 17.849 13.676 17.3501 13.3678 17.0876L10.8253 14.9217C10.6792 14.7974 10.6142 14.6023 10.6563 14.4152L11.7499 9.55469" stroke="#7A5400" stroke-width="0.774718" stroke-linecap="round"/>
<path d="M14.5905 32.1507L15.5805 29.8408C15.6799 29.609 15.5972 29.3393 15.3851 29.2029L14.9982 28.9542C14.6105 28.705 14.7187 28.1113 15.1693 28.0148L18.4766 27.306C18.869 27.222 19.0198 26.742 18.746 26.4486L16.5636 24.1103C16.2554 23.7802 16.4896 23.2414 16.9412 23.2414H20.2956C20.7895 23.2414 21.0017 22.6147 20.6093 22.3147L17.7759 20.1479C17.5766 19.9955 17.5156 19.7219 17.6314 19.4994L20.7883 13.4283" stroke="#7A5400" stroke-width="0.774718" stroke-linecap="round"/>
<path d="M22.3366 14.4305C22.2265 14.6144 21.9698 14.7219 21.5919 14.7032C21.2202 14.6848 20.7658 14.5435 20.3214 14.2775C19.877 14.0114 19.5378 13.6776 19.3461 13.3587C19.1511 13.0344 19.1246 12.7573 19.2347 12.5734C19.3448 12.3895 19.6015 12.2821 19.9794 12.3008C20.3511 12.3192 20.8055 12.4605 21.2499 12.7265C21.6943 12.9925 22.0335 13.3264 22.2252 13.6453C22.4202 13.9696 22.4467 14.2466 22.3366 14.4305Z" fill="#7A5400" stroke="#7A5400" stroke-width="0.258239"/>
<path d="M13.2235 9.2645C13.164 9.48493 12.9712 9.66367 12.6765 9.76196C12.3829 9.85989 12.003 9.87129 11.6087 9.7649C11.2145 9.6585 10.8919 9.45751 10.6875 9.22517C10.4822 8.99196 10.4055 8.74049 10.465 8.52006C10.5245 8.29963 10.7173 8.12089 11.012 8.02259C11.3056 7.92466 11.6855 7.91326 12.0797 8.01966C12.474 8.12605 12.7966 8.32704 13.001 8.55938C13.2062 8.79259 13.283 9.04407 13.2235 9.2645Z" fill="#7A5400" stroke="#7A5400" stroke-width="0.258239"/>
<path d="M15.3653 37.5738L14.1809 36.0934C13.7445 35.5478 13.971 34.7466 14.6561 34.6092C15.6043 34.4189 16.8082 34.3483 17.4312 34.9914C18.5188 36.1141 18.3924 37.7614 17.4312 38.9941C16.2802 40.4702 12.6537 39.3815 12.6537 39.3815L15.3653 37.5738Z" fill="#3474FF"/>
<path d="M6.06853 36.9284C6.76783 38.2398 8.53269 38.4265 9.59953 38.4103C10.0601 38.4033 10.3532 37.9613 10.2141 37.5222C10.0007 36.8486 9.66774 35.905 9.29665 35.2498C8.95073 34.6391 8.37859 33.9381 7.90511 33.4018C7.49149 32.9333 6.76952 32.9858 6.4779 33.5386C5.99222 34.4591 5.48929 35.8422 6.06853 36.9284Z" fill="#3474FF"/>
</svg>
