<svg width="36" height="36" viewBox="0 0 36 36" fill="none" xmlns="http://www.w3.org/2000/svg">
<g clip-path="url(#clip0_3410_917)">
<path fill-rule="evenodd" clip-rule="evenodd" d="M15.4553 3.84493C16.5135 3.72443 17.2737 2.76884 17.1532 1.71055C17.0327 0.652263 16.0771 -0.10795 15.0188 0.0125603C12.8463 0.259953 10.8526 0.790151 9.07009 1.61325C8.1031 2.05979 7.68118 3.20567 8.12771 4.17268C8.57424 5.13967 9.72014 5.56159 10.6872 5.11506C12.0465 4.48732 13.6332 4.05242 15.4553 3.84493ZM19.8345 1.75511C20.0045 0.703646 20.9947 -0.0109334 22.0462 0.159057C26.411 0.864694 29.9629 2.78599 32.4016 5.9112C34.8247 9.0163 35.9993 13.1167 35.9993 17.9247C35.9993 23.4442 34.4485 28.0296 31.2589 31.2339C28.068 34.4397 23.4994 36.0003 17.999 36.0003C11.7297 36.0003 6.68238 33.9678 3.51647 29.8347C2.86875 28.9893 3.02913 27.7786 3.87469 27.1309C4.72023 26.4831 5.93076 26.6436 6.57847 27.4891C8.81616 30.4105 12.5611 32.1431 17.999 32.1431C22.7845 32.1431 26.2515 30.797 28.5252 28.5128C30.8001 26.2273 32.1422 22.7391 32.1422 17.9247C32.1422 13.7265 31.1192 10.5376 29.3609 8.28419C27.618 6.05091 25.0037 4.54443 21.4306 3.96676C20.3791 3.79677 19.6645 2.80659 19.8345 1.75511ZM17.9504 10.3904C19.0155 10.3904 19.879 11.2539 19.879 12.319V23.6789C19.879 24.744 19.0156 25.6075 17.9504 25.6075C16.8853 25.6075 16.0219 24.744 16.0219 23.6789V12.319C16.0219 11.2539 16.8853 10.3904 17.9504 10.3904ZM11.1069 13.0999C12.172 13.0999 13.0355 13.9634 13.0355 15.0285V20.9694C13.0355 22.0345 12.172 22.898 11.1069 22.898C10.0418 22.898 9.17832 22.0345 9.17832 20.9694V15.0285C9.17832 13.9634 10.0418 13.0999 11.1069 13.0999ZM26.8193 15.0285C26.8193 13.9634 25.9558 13.1 24.8907 13.1C23.8255 13.1 22.9621 13.9634 22.9621 15.0285V20.9694C22.9621 22.0346 23.8255 22.898 24.8907 22.898C25.9558 22.898 26.8193 22.0346 26.8193 20.9694V15.0285ZM3.85592 17.9247C3.85592 16.8596 2.99246 15.9962 1.92735 15.9962C0.862229 15.9962 -0.0012207 16.8596 -0.0012207 17.9247C-0.0012207 19.9547 0.207514 21.8549 0.630757 23.6082C0.880692 24.6435 1.92265 25.2803 2.95803 25.0303C3.99342 24.7804 4.63013 23.7385 4.38021 22.7031C4.03793 21.2852 3.85592 19.6927 3.85592 17.9247ZM5.93898 6.06916C6.78108 6.72135 6.93505 7.9327 6.28286 8.77482C5.55767 9.71118 4.99414 10.8571 4.62673 12.2317C4.35172 13.2608 3.29461 13.872 2.26561 13.597C1.23661 13.322 0.625377 12.2648 0.900392 11.2358C1.38532 9.42141 2.16027 7.79858 3.23333 6.41304C3.88552 5.57095 5.09689 5.41697 5.93898 6.06916Z" fill="#0040CC"/>
</g>
<defs>
<clipPath id="clip0_3410_917">
<rect width="36" height="36" fill="white"/>
</clipPath>
</defs>
</svg>
