<svg width="400" height="308" viewBox="0 0 400 308" fill="none" xmlns="http://www.w3.org/2000/svg">
<rect x="0.471191" y="0.517822" width="398.713" height="306.702" rx="33.843" fill="#3474FF"/>
<rect x="0.73559" y="0.782221" width="398.184" height="306.173" rx="33.5786" stroke="black" stroke-opacity="0.08" stroke-width="0.528797"/>
<rect x="170.744" y="8.97858" width="59.2253" height="4.23038" rx="2.11519" fill="white" fill-opacity="0.4"/>
<rect x="44.89" y="68.2038" width="9.51834" height="67.686" rx="4.75917" fill="#0040CC"/>
<rect x="66.6765" y="80.895" width="9.51834" height="42.3038" rx="4.75917" fill="#0040CC"/>
<rect x="88.4629" y="72.4343" width="8.46075" height="59.2253" rx="4.23038" fill="#0040CC"/>
<rect x="109.192" y="89.3558" width="9.51834" height="25.3823" rx="4.75917" fill="#0040CC"/>
<rect x="130.978" y="80.895" width="9.51834" height="42.3038" rx="4.75917" fill="#0040CC"/>
<rect x="152.765" y="76.6646" width="8.46075" height="50.7645" rx="4.23038" fill="#99B9FF"/>
<rect x="173.493" y="59.7431" width="9.51834" height="84.6075" rx="4.75917" fill="#99B9FF"/>
<rect x="195.28" y="68.2039" width="9.51834" height="67.686" rx="4.75917" fill="#99B9FF"/>
<rect x="217.066" y="80.895" width="9.51834" height="42.3038" rx="4.75917" fill="#99B9FF"/>
<rect x="238.853" y="72.4342" width="8.46075" height="59.2253" rx="4.23038" fill="#99B9FF"/>
<rect x="259.582" y="63.9735" width="9.51834" height="76.1468" rx="4.75917" fill="#99B9FF"/>
<rect x="281.368" y="80.895" width="9.51834" height="42.3038" rx="4.75917" fill="#99B9FF"/>
<rect x="303.154" y="89.3558" width="8.46075" height="25.3823" rx="4.23038" fill="#99B9FF"/>
<rect x="323.883" y="80.8951" width="9.51834" height="42.3038" rx="4.75917" fill="#99B9FF"/>
<rect x="345.67" y="72.4343" width="9.51834" height="59.2253" rx="4.75917" fill="#99B9FF"/>
<g clip-path="url(#clip0_3457_9312)">
<rect x="80.848" y="258.571" width="237.959" height="8.46075" rx="4.23038" fill="black" fill-opacity="0.4"/>
<rect x="80.8479" y="258.571" width="105.759" height="8.46075" fill="white"/>
</g>
<rect x="25.8536" y="243.765" width="38.0734" height="38.0734" rx="19.0367" fill="black" fill-opacity="0.4"/>
<path d="M39.6027 258.251V267.6C39.6027 269.228 41.3647 270.246 42.7749 269.432L50.3709 265.05C51.7368 264.262 51.7912 262.31 50.4715 261.447L42.8754 256.481C41.4686 255.561 39.6027 256.57 39.6027 258.251Z" fill="white"/>
<rect x="335.729" y="243.765" width="38.0734" height="38.0734" rx="19.0367" fill="black" fill-opacity="0.4"/>
<path d="M362.1 270.627L347.63 256.18C347.374 255.917 347.374 255.475 347.63 255.212C347.901 254.949 348.335 254.949 348.598 255.212L363.06 269.658C363.324 269.929 363.316 270.356 363.06 270.627C362.805 270.89 362.363 270.882 362.1 270.627ZM359.296 264.329L353.718 258.767H353.773C353.796 258.76 353.819 258.744 353.835 258.729L356.492 256.265C357.011 255.785 357.406 255.592 357.894 255.592C358.691 255.592 359.296 256.211 359.296 257.001V264.329ZM351.178 266.529C349.776 266.529 349.024 265.731 349.024 264.275V261.401C349.024 260.665 349.226 260.092 349.598 259.712L359.164 269.279C358.932 269.775 358.467 270.077 357.901 270.077C357.382 270.077 356.98 269.875 356.492 269.418L353.424 266.568C353.385 266.537 353.339 266.529 353.292 266.529H351.178Z" fill="white"/>
<path d="M121.292 213.114C121.391 210.607 121.44 206.836 121.44 201.802C121.44 196.788 121.391 193.027 121.292 190.52H130.176C130.077 193.027 130.028 196.778 130.028 201.773C130.028 206.807 130.077 210.587 130.176 213.114H121.292Z" fill="white" fill-opacity="0.5"/>
<path d="M233.256 206.688C233.117 210.064 233.048 212.196 233.048 213.085C232.496 213.164 231.785 213.223 230.916 213.262C230.048 213.302 229.278 213.321 228.606 213.321C226.494 213.321 224.856 213.065 223.691 212.552C222.526 212.018 221.687 211.16 221.174 209.975C220.68 208.771 220.433 207.083 220.433 204.911V199.374L218.301 199.522V193.155L220.345 193.274L220.285 190.49C222.99 190.49 226.02 190.391 229.376 190.194L229.317 193.274L232.9 193.155C232.861 193.629 232.841 193.984 232.841 194.221C232.762 195.129 232.723 195.83 232.723 196.324C232.723 196.659 232.703 197.222 232.663 198.012C232.624 198.643 232.604 199.147 232.604 199.522L229.228 199.374L229.258 203.993L229.288 206.688H233.256Z" fill="white"/>
<path d="M195.314 213.085C195.393 211.051 195.433 207.754 195.433 203.194C195.433 198.614 195.393 195.297 195.314 193.244H204.287L203.576 198.397H204.02C204.474 196.64 205.284 195.277 206.448 194.31C207.633 193.343 208.995 192.859 210.535 192.859C212.016 192.859 213.18 193.155 214.029 193.748C214.898 194.34 215.52 195.218 215.895 196.383C216.27 197.528 216.487 199.038 216.546 200.914C216.566 201.763 216.576 202.74 216.576 203.845C216.576 204.931 216.586 206.007 216.606 207.073C216.606 209.857 216.625 211.861 216.665 213.085H207.781C207.82 211.801 207.84 209.847 207.84 207.221V202.898C207.84 202.009 207.623 201.338 207.189 200.884C206.754 200.43 206.212 200.203 205.56 200.203C205.363 200.203 204.997 200.252 204.464 200.351C204.267 201.042 204.168 202.148 204.168 203.668C204.168 207.991 204.208 211.13 204.287 213.085H195.314Z" fill="white"/>
<path d="M192.927 204.319C192.848 206.333 192.463 208.001 191.772 209.324C191.101 210.646 189.985 211.663 188.426 212.374C186.886 213.085 184.803 213.44 182.177 213.44C178.94 213.44 176.442 212.601 174.685 210.923C172.948 209.225 172.079 206.619 172.079 203.105C172.079 199.571 172.988 196.985 174.804 195.347C176.64 193.688 179.414 192.859 183.125 192.859C186.402 192.859 188.84 193.649 190.439 195.228C192.058 196.788 192.868 199.038 192.868 201.98V203.431H180.874C180.894 204.536 181.072 205.435 181.407 206.126C181.743 206.817 182.296 207.162 183.066 207.162C183.401 207.162 183.767 207.063 184.161 206.866C184.3 206.412 184.379 205.997 184.398 205.622C184.438 205.247 184.458 204.813 184.458 204.319H192.927ZM182.385 199.019C182.128 199.019 181.723 199.117 181.171 199.315C181.032 199.986 180.944 200.716 180.904 201.506L184.309 201.536C184.073 199.858 183.431 199.019 182.385 199.019Z" fill="white"/>
<path d="M140.769 213.085C140.512 209.827 140.196 206.402 139.821 202.809C139.446 199.196 139.051 196.008 138.636 193.244H147.402L148.231 207.547H148.794L150.659 193.244H159.839L161.675 207.547H162.208L162.978 193.244H171.743C171.349 196.028 171.033 198.476 170.796 200.588C170.579 202.7 170.312 205.523 169.996 209.057L169.611 213.085H156.671L155.456 200.47H155.042L153.828 213.085H140.769Z" fill="white"/>
<path d="M268.405 213.44C264.872 213.44 262.197 212.581 260.38 210.864C258.584 209.126 257.686 206.56 257.686 203.164C257.686 199.769 258.584 197.202 260.38 195.465C262.197 193.728 264.872 192.859 268.405 192.859C272.038 192.859 274.782 193.728 276.638 195.465C278.493 197.183 279.421 199.739 279.421 203.135C279.421 206.55 278.493 209.126 276.638 210.864C274.782 212.581 272.038 213.44 268.405 213.44ZM268.613 207.221C268.85 207.221 269.116 207.192 269.412 207.132C269.728 207.073 269.955 206.984 270.093 206.866C270.468 205.701 270.656 204.467 270.656 203.164C270.656 201.96 270.458 200.973 270.064 200.203C269.669 199.413 269.146 199.019 268.494 199.019C268.257 199.019 267.991 199.068 267.695 199.167C267.398 199.246 267.142 199.354 266.925 199.492C266.609 200.519 266.451 201.703 266.451 203.046C266.451 204.309 266.638 205.326 267.014 206.096C267.408 206.846 267.941 207.221 268.613 207.221Z" fill="white" fill-opacity="0.5"/>
<path d="M256.671 206.688C256.533 210.064 256.464 212.196 256.464 213.085C255.911 213.164 255.2 213.223 254.331 213.262C253.463 213.302 252.693 213.321 252.022 213.321C249.909 213.321 248.271 213.065 247.106 212.552C245.941 212.018 245.102 211.16 244.589 209.975C244.095 208.771 243.849 207.083 243.849 204.911V199.374L241.716 199.522V193.155L243.76 193.274L243.7 190.49C246.405 190.49 249.435 190.391 252.792 190.194L252.732 193.274L256.315 193.155C256.276 193.629 256.256 193.984 256.256 194.221C256.177 195.129 256.138 195.83 256.138 196.324C256.138 196.659 256.118 197.222 256.079 198.012C256.039 198.643 256.019 199.147 256.019 199.522L252.643 199.374L252.673 203.993L252.703 206.688H256.671Z" fill="white" fill-opacity="0.5"/>
<defs>
<clipPath id="clip0_3457_9312">
<rect x="80.848" y="258.571" width="237.959" height="8.46075" rx="4.23038" fill="white"/>
</clipPath>
</defs>
</svg>
