<svg width="348" height="736" viewBox="0 0 348 736" fill="none" xmlns="http://www.w3.org/2000/svg">
<g clip-path="url(#clip0_7_1277)">
<rect x="8" y="8" width="332" height="719.756" rx="43.9288" fill="white" style="fill:white;fill-opacity:1;"/>
<rect x="149.924" y="614.555" width="47.3079" height="3.37913" rx="1.68957" fill="white" fill-opacity="0.4" style="fill:white;fill-opacity:0.4;"/>
<rect width="332" height="49.8422" transform="translate(8 8)" fill="white" style="fill:white;fill-opacity:1;"/>
<path d="M56.6073 27.1216C57.1496 27.1216 57.6638 27.2221 58.15 27.4232C58.6362 27.6195 59.0663 27.9281 59.4403 28.3488C59.819 28.7649 60.1158 29.3001 60.3309 29.9546C60.5459 30.6044 60.6534 31.3875 60.6534 32.3038V32.3178C60.6534 33.4538 60.4898 34.4262 60.1626 35.2349C59.8353 36.0437 59.3655 36.6655 58.7531 37.1002C58.1453 37.5303 57.4184 37.7454 56.5722 37.7454C55.9505 37.7454 55.3895 37.6332 54.8893 37.4088C54.3937 37.1797 53.9823 36.8665 53.6551 36.4691C53.3325 36.0671 53.1151 35.6089 53.0029 35.0947L52.9889 35.0176H54.763L54.7911 35.0877C54.8799 35.3214 55.0061 35.5271 55.1698 35.7048C55.3381 35.8824 55.5391 36.0203 55.7728 36.1185C56.0112 36.212 56.2777 36.2587 56.5722 36.2587C57.1052 36.2587 57.5399 36.1021 57.8765 35.7889C58.2178 35.471 58.4726 35.0479 58.6409 34.5197C58.8138 33.9867 58.912 33.3977 58.9354 32.7526C58.9401 32.6824 58.9424 32.6147 58.9424 32.5492C58.9424 32.4791 58.9424 32.4113 58.9424 32.3458L58.6269 30.6559C58.6269 30.2725 58.538 29.9242 58.3604 29.611C58.1827 29.2978 57.942 29.05 57.6381 28.8677C57.3389 28.6854 57 28.5942 56.6213 28.5942C56.2567 28.5942 55.9224 28.6831 55.6185 28.8607C55.3147 29.0383 55.0716 29.2814 54.8893 29.59C54.7069 29.8939 54.6158 30.2351 54.6158 30.6138V30.6278C54.6158 31.0205 54.7023 31.3688 54.8752 31.6727C55.0482 31.9719 55.2843 32.2079 55.5835 32.3809C55.8827 32.5539 56.2239 32.6404 56.6073 32.6404C56.9906 32.6404 57.3342 32.5562 57.6381 32.3879C57.942 32.2196 58.1827 31.9859 58.3604 31.6867C58.538 31.3875 58.6269 31.0486 58.6269 30.6699V30.6559H59.0476V32.5212H58.8022C58.6806 32.7876 58.5006 33.0354 58.2622 33.2645C58.0238 33.4935 57.7293 33.6782 57.3786 33.8184C57.0327 33.9587 56.626 34.0288 56.1585 34.0288C55.5134 34.0288 54.943 33.8839 54.4475 33.594C53.9519 33.3042 53.5616 32.9068 53.2764 32.4019C52.9959 31.8971 52.8557 31.3267 52.8557 30.6909V30.6769C52.8557 29.9897 53.0146 29.3796 53.3325 28.8467C53.6551 28.3091 54.0992 27.8883 54.6649 27.5844C55.2352 27.2759 55.8827 27.1216 56.6073 27.1216ZM63.837 36.1325C63.5191 36.1325 63.2527 36.0273 63.0376 35.817C62.8273 35.6019 62.7221 35.3401 62.7221 35.0316C62.7221 34.7184 62.8273 34.4566 63.0376 34.2462C63.2527 34.0311 63.5191 33.9236 63.837 33.9236C64.1596 33.9236 64.4261 34.0311 64.6364 34.2462C64.8468 34.4566 64.952 34.7184 64.952 35.0316C64.952 35.3401 64.8468 35.6019 64.6364 35.817C64.4261 36.0273 64.1596 36.1325 63.837 36.1325ZM63.837 30.9293C63.5191 30.9293 63.2527 30.8242 63.0376 30.6138C62.8273 30.3987 62.7221 30.1369 62.7221 29.8284C62.7221 29.5152 62.8273 29.2534 63.0376 29.043C63.2527 28.828 63.5191 28.7205 63.837 28.7205C64.1596 28.7205 64.4261 28.828 64.6364 29.043C64.8468 29.2534 64.952 29.5152 64.952 29.8284C64.952 30.1369 64.8468 30.3987 64.6364 30.6138C64.4261 30.8242 64.1596 30.9293 63.837 30.9293ZM71.9293 37.4929V35.5505H66.9786V34.0709C67.245 33.6174 67.5115 33.1616 67.778 32.7035C68.0491 32.2453 68.3226 31.7895 68.5984 31.3361C68.8789 30.8779 69.1571 30.4268 69.4329 29.9827C69.7134 29.5339 69.9916 29.0921 70.2674 28.6573C70.5479 28.2179 70.8284 27.7901 71.1089 27.3741H73.6543V34.0569H75.0218V35.5505H73.6543V37.4929H71.9293ZM68.6615 34.0989H71.9574V28.8186H71.8522C71.6465 29.1365 71.4338 29.4638 71.214 29.8004C70.999 30.1369 70.7816 30.4806 70.5619 30.8312C70.3422 31.1818 70.1248 31.5347 69.9097 31.89C69.6947 32.2407 69.482 32.5936 69.2716 32.9489C69.0613 33.2995 68.8579 33.6478 68.6615 33.9937V34.0989ZM79.2081 37.4929V29.1552H79.0819L76.5645 30.9293V29.2324L79.2081 27.3741H81.0103V37.4929H79.2081Z" fill="black" style="fill:black;fill-opacity:1;"/>
<rect opacity="0.35" x="290.158" y="27.8523" width="20.2748" height="10.1374" rx="3.21018" stroke="black" style="stroke:black;stroke-opacity:1;" stroke-width="0.844784"/>
<path opacity="0.4" d="M311.7 31.469V34.9119C312.38 34.6203 312.822 33.942 312.822 33.1904C312.822 32.4389 312.38 31.7606 311.7 31.469" fill="black" style="fill:black;fill-opacity:1;"/>
<rect x="291.425" y="29.1194" width="17.7405" height="7.60305" rx="2.11196" fill="black" style="fill:black;fill-opacity:1;"/>
<path fill-rule="evenodd" clip-rule="evenodd" d="M276.447 30.0522C278.549 30.0523 280.569 30.8313 282.092 32.2281C282.207 32.3359 282.39 32.3346 282.503 32.2251L283.599 31.1577C283.656 31.1021 283.688 31.0269 283.688 30.9486C283.687 30.8703 283.654 30.7954 283.596 30.7405C279.6 27.0448 273.295 27.0448 269.298 30.7405C269.24 30.7954 269.207 30.8702 269.207 30.9485C269.206 31.0268 269.238 31.1021 269.295 31.1577L270.391 32.2251C270.504 32.3348 270.688 32.3361 270.802 32.2281C272.325 30.8312 274.346 30.0522 276.447 30.0522ZM276.445 33.6174C277.591 33.6174 278.697 34.0497 279.547 34.8304C279.662 34.9412 279.843 34.9388 279.955 34.825L281.043 33.7104C281.1 33.652 281.132 33.5727 281.131 33.4903C281.13 33.4078 281.097 33.3292 281.038 33.2719C278.45 30.8298 274.442 30.8298 271.853 33.2719C271.795 33.3292 271.761 33.4079 271.761 33.4903C271.76 33.5728 271.792 33.6521 271.849 33.7104L272.936 34.825C273.048 34.9388 273.23 34.9412 273.344 34.8304C274.194 34.0502 275.299 33.6179 276.445 33.6174ZM278.577 35.9774C278.579 36.0664 278.548 36.1522 278.491 36.2145L276.652 38.2883C276.598 38.3492 276.524 38.3835 276.448 38.3835C276.371 38.3835 276.298 38.3492 276.244 38.2883L274.405 36.2145C274.348 36.1521 274.317 36.0663 274.318 35.9773C274.32 35.8883 274.354 35.804 274.413 35.7444C275.588 34.6344 277.308 34.6344 278.482 35.7444C278.541 35.8041 278.576 35.8884 278.577 35.9774Z" fill="black" style="fill:black;fill-opacity:1;"/>
<path fill-rule="evenodd" clip-rule="evenodd" d="M262.872 28.8509C262.872 28.3161 262.468 27.8826 261.971 27.8826H261.069C260.572 27.8826 260.168 28.3161 260.168 28.8509V37.2429C260.168 37.7777 260.572 38.2112 261.069 38.2112H261.971C262.468 38.2112 262.872 37.7777 262.872 37.2429V28.8509ZM256.591 29.9483H257.493C257.99 29.9483 258.394 30.3922 258.394 30.9399V37.2197C258.394 37.7673 257.99 38.2112 257.493 38.2112H256.591C256.094 38.2112 255.69 37.7673 255.69 37.2197V30.9399C255.69 30.3922 256.094 29.9483 256.591 29.9483ZM252.932 32.1862H252.031C251.533 32.1862 251.13 32.6358 251.13 33.1904V37.2071C251.13 37.7617 251.533 38.2112 252.031 38.2112H252.932C253.43 38.2112 253.833 37.7617 253.833 37.2071V33.1904C253.833 32.6358 253.43 32.1862 252.932 32.1862ZM248.454 34.2519H247.553C247.055 34.2519 246.652 34.6951 246.652 35.2418V37.2214C246.652 37.7681 247.055 38.2112 247.553 38.2112H248.454C248.952 38.2112 249.355 37.7681 249.355 37.2214V35.2418C249.355 34.6951 248.952 34.2519 248.454 34.2519Z" fill="black" style="fill:black;fill-opacity:1;"/>
<rect x="119.934" y="18.1375" width="107.288" height="30.4122" rx="15.2061" fill="black" style="fill:black;fill-opacity:1;"/>
<circle cx="206.102" cy="33.3435" r="7.60305" fill="black" style="fill:black;fill-opacity:1;"/>
<g opacity="0.7">
<path d="M206.072 37.6659C208.403 37.6659 210.288 35.7413 210.288 33.3726C210.288 31.0039 208.403 29.0793 206.072 29.0793C203.741 29.0793 201.856 31.0039 201.856 33.3726C201.856 35.7413 203.741 37.6659 206.072 37.6659Z" fill="url(#paint0_radial_7_1277)" style=""/>
<path d="M206.072 37.6659C208.403 37.6659 210.288 35.7413 210.288 33.3726C210.288 31.0039 208.403 29.0793 206.072 29.0793C203.741 29.0793 201.856 31.0039 201.856 33.3726C201.856 35.7413 203.741 37.6659 206.072 37.6659Z" fill="url(#paint1_angular_7_1277)" style=""/>
<path d="M206.072 37.6659C208.403 37.6659 210.288 35.7413 210.288 33.3726C210.288 31.0039 208.403 29.0793 206.072 29.0793C203.741 29.0793 201.856 31.0039 201.856 33.3726C201.856 35.7413 203.741 37.6659 206.072 37.6659Z" fill="url(#paint2_angular_7_1277)" style=""/>
<path d="M206.072 37.6659C208.403 37.6659 210.288 35.7413 210.288 33.3726C210.288 31.0039 208.403 29.0793 206.072 29.0793C203.741 29.0793 201.856 31.0039 201.856 33.3726C201.856 35.7413 203.741 37.6659 206.072 37.6659Z" stroke="black" style="stroke:black;stroke-opacity:1;" stroke-width="0.271979"/>
</g>
<line opacity="0.7" x1="206.072" y1="29.2153" x2="206.072" y2="37.5299" stroke="black" style="stroke:black;stroke-opacity:1;" stroke-width="0.679948"/>
<rect x="113.598" y="718.74" width="118.27" height="4.22392" rx="2.11196" fill="black" style="fill:black;fill-opacity:1;"/>
</g>
<rect x="4" y="4" width="340" height="727.756" rx="47.9288" stroke="#F5F8FB" style="stroke:#F5F8FB;stroke:color(display-p3 0.9608 0.9725 0.9843);stroke-opacity:1;" stroke-width="8"/>
<defs>
<radialGradient id="paint0_radial_7_1277" cx="0" cy="0" r="1" gradientUnits="userSpaceOnUse" gradientTransform="translate(206.072 33.3726) rotate(90) scale(4.15728 4.07969)">
<stop offset="0.213542" style="stop-color:black;stop-opacity:1;"/>
<stop offset="0.270833" stop-color="#081A32" style="stop-color:#081A32;stop-color:color(display-p3 0.0314 0.1020 0.1961);stop-opacity:1;"/>
<stop offset="0.395833" stop-color="#1F3A58" style="stop-color:#1F3A58;stop-color:color(display-p3 0.1216 0.2275 0.3451);stop-opacity:1;"/>
<stop offset="0.515625" stop-color="#375F90" style="stop-color:#375F90;stop-color:color(display-p3 0.2157 0.3725 0.5647);stop-opacity:1;"/>
<stop offset="0.713542" stop-color="#274871" style="stop-color:#274871;stop-color:color(display-p3 0.1529 0.2824 0.4431);stop-opacity:1;"/>
<stop offset="0.916667" stop-color="#0D1528" style="stop-color:#0D1528;stop-color:color(display-p3 0.0510 0.0824 0.1569);stop-opacity:1;"/>
</radialGradient>
<radialGradient id="paint1_angular_7_1277" cx="0" cy="0" r="1" gradientUnits="userSpaceOnUse" gradientTransform="translate(206.072 33.3726) rotate(90) scale(4.15728 4.07969)">
<stop offset="0.411458" stop-opacity="0" style="stop-color:none;stop-opacity:0;"/>
<stop offset="0.510417" style="stop-color:black;stop-opacity:1;"/>
<stop offset="0.817708" stop-opacity="0" style="stop-color:none;stop-opacity:0;"/>
</radialGradient>
<radialGradient id="paint2_angular_7_1277" cx="0" cy="0" r="1" gradientUnits="userSpaceOnUse" gradientTransform="translate(206.072 33.3726) rotate(90) scale(4.15728 4.07969)">
<stop style="stop-color:black;stop-opacity:1;"/>
<stop offset="0.166667" stop-opacity="0" style="stop-color:none;stop-opacity:0;"/>
<stop offset="0.885417" stop-opacity="0" style="stop-color:none;stop-opacity:0;"/>
</radialGradient>
<clipPath id="clip0_7_1277">
<rect x="8" y="8" width="332" height="719.756" rx="43.9288" fill="white" style="fill:white;fill-opacity:1;"/>
</clipPath>
</defs>
</svg>
